<svg xmlns="http://www.w3.org/2000/svg" viewBox="0 0 911.91 310.3"><defs><style>.cls-1{fill:#939598;}.cls-2{fill:#ffde00;}</style></defs><g id="Layer_2" data-name="Layer 2"><g id="Layer_1-2" data-name="Layer 1"><path class="cls-1" d="M94.86,86.54l27.21-11.27L149.27,64a10.82,10.82,0,0,1-.26-7.62L106.87,28.94A10.89,10.89,0,0,1,100,31.77L89.66,81a10.83,10.83,0,0,1,5.2,5.57"/><path class="cls-1" d="M58.12,155.15,69.39,128l11.27-27.21a10.83,10.83,0,0,1-5.57-5.2L25.88,105.93a10.83,10.83,0,0,1-2.83,6.82l27.46,42.13a10.87,10.87,0,0,1,7.61.27"/><path class="cls-1" d="M80.66,229.64l-11.27-27.2L58.12,175.23a10.87,10.87,0,0,1-4.16.83,10.67,10.67,0,0,1-3.45-.57L23.05,217.63a10.81,10.81,0,0,1,2.83,6.82l49.21,10.39a10.83,10.83,0,0,1,5.57-5.2"/><path class="cls-1" d="M149.27,266.37l-27.21-11.26-27.2-11.27a11,11,0,0,1-5.2,5.57L100,298.61a10.84,10.84,0,0,1,6.83,2.83L149,274a10.9,10.9,0,0,1,.27-7.62"/><path class="cls-1" d="M223.76,243.84l-27.21,11.27-27.2,11.26a10.87,10.87,0,0,1,.83,4.16,10.64,10.64,0,0,1-.57,3.46l42.14,27.45a10.81,10.81,0,0,1,6.82-2.83L229,249.41a10.93,10.93,0,0,1-5.19-5.57"/><path class="cls-1" d="M261,174l-11.76,28.4L238,229.64a10.91,10.91,0,0,1,5.57,5.2l49.2-10.39a10.89,10.89,0,0,1,2.86-6.86L267.4,173.9a10.69,10.69,0,0,1-3.41.55,11,11,0,0,1-3-.42"/><path class="cls-1" d="M238,100.74l11.27,27.2,10.6,25.6a11,11,0,0,1,7.82-.19l27.76-40.77a10.85,10.85,0,0,1-2.68-6.65l-49.2-10.39a11,11,0,0,1-5.57,5.2"/><path class="cls-1" d="M169.35,64l27.2,11.27,27.21,11.27A10.89,10.89,0,0,1,229,81L218.57,31.76a10.75,10.75,0,0,1-6.82-2.82L169.61,56.39a10.67,10.67,0,0,1,.57,3.45,10.83,10.83,0,0,1-.83,4.16"/><path class="cls-2" d="M22.71,97.74,57.29,63.17,91.86,28.59a11.06,11.06,0,0,0,2.84,2.05L84.32,79.84A10.89,10.89,0,0,0,74,90.2l-49.2,10.39a10.94,10.94,0,0,0-2.05-2.85"/><path class="cls-2" d="M15,214.09v-97.8a11,11,0,0,0,3.46-.56l27.44,42.14a10.88,10.88,0,0,0,0,14.64L18.49,214.65a10.72,10.72,0,0,0-3.46-.56"/><path class="cls-2" d="M91.86,301.79,57.29,267.21,22.71,232.64a11.06,11.06,0,0,0,2.05-2.84L74,240.18a10.87,10.87,0,0,0,10.36,10.35L94.7,299.74a11.06,11.06,0,0,0-2.84,2.05"/><path class="cls-2" d="M208.2,309.47H110.41a10.72,10.72,0,0,0-.56-3.46L152,278.56a10.87,10.87,0,0,0,14.65,0L208.77,306a10.73,10.73,0,0,0-.57,3.46"/><path class="cls-2" d="M295.91,232.64l-34.58,34.57-34.57,34.58a11.06,11.06,0,0,0-2.84-2.05l10.38-49.21a10.87,10.87,0,0,0,10.36-10.35l49.2-10.38a10.83,10.83,0,0,0,2.05,2.84"/><path class="cls-2" d="M303.59,116.29v97.8a11,11,0,0,0-3.41.54L272,170.94a10.87,10.87,0,0,0,.19-14.51l27.75-40.77a10.88,10.88,0,0,0,3.67.63"/><path class="cls-2" d="M226.76,28.59l34.57,34.58L295.9,97.74a11.27,11.27,0,0,0-2,2.84L244.65,90.2A10.87,10.87,0,0,0,234.3,79.84l-10.39-49.2a10.94,10.94,0,0,0,2.85-2.05"/><path class="cls-2" d="M110.41,20.91H208.2a10.73,10.73,0,0,0,.57,3.46L166.63,51.82a10.87,10.87,0,0,0-14.65,0L109.85,24.37a10.72,10.72,0,0,0,.56-3.46"/><path d="M50.09,155.15l4.09-2.67L19.24,98.85,85,85,98.85,19.24l56.3,36.67,56.29-36.67L225.31,85,290.9,98.82l-37.22,54.66,37.4,58-65.77,13.88-13.87,65.74-56.3-36.68L98.85,291.06,85,225.32,19.24,211.44l36.67-56.29-1.73-2.67-4.09,2.67L46,152.48,3.28,218.05l73.45,15.51L92.23,307l62.91-41,62.91,41,15.5-73.46L307,218.06,265.4,153.62l41.77-61.35L233.55,76.74,218.05,3.27l-62.9,41-62.91-41L76.73,76.74,3.28,92.24,46,157.81l4.1-2.66L46,152.48ZM155.15,50.09l-1.87,4.51L190.42,70,225.7,84.6l14.61,35.27,14.61,35.28-14.61,35.27L225.69,225.7l-35.27,14.61-35.28,14.62-35.27-14.62L84.59,225.7,70,190.42,55.37,155.15,70,119.87,84.59,84.6,119.87,70,157,54.6l-1.86-4.51-1.87,4.51,1.87-4.51-1.87-4.52L116.13,61l-39,16.16L61,116.14l-16.16,39,16.16,39,16.16,39,39,16.16,39,16.16,39-16.16,39-16.15,16.16-39,16.16-39-16.16-39-16.16-39L194.16,61l-39-16.16-1.86.77ZM95.54,11.25v4.89H212.72l40.72,40.71,40.71,40.72V212.72l-40.71,40.72-40.72,40.72H97.57L56.85,253.44,16.14,212.72V97.57L56.85,56.85,99,14.71l-3.46-3.46v0L92.09,7.8,49.94,50,6.37,93.52V216.77l43.57,43.58,43.58,43.57H216.77l43.57-43.57,43.57-43.58V93.52L260.34,50,216.77,6.37H93.52L92.09,7.8Z"/><path d="M10.87,106.25A10.87,10.87,0,1,0,0,95.38a10.89,10.89,0,0,0,10.87,10.87"/><path d="M49.8,166a10.87,10.87,0,1,0-10.86-10.86A10.89,10.89,0,0,0,49.8,166"/><path d="M10.87,225.78A10.87,10.87,0,1,0,0,214.91a10.89,10.89,0,0,0,10.87,10.87"/><path d="M80.66,240.5a10.87,10.87,0,1,0-10.87-10.86A10.88,10.88,0,0,0,80.66,240.5"/><path d="M95.39,310.3a10.87,10.87,0,1,0-10.87-10.87A10.89,10.89,0,0,0,95.39,310.3"/><path d="M155.15,271.36a10.87,10.87,0,1,0-10.87-10.87,10.89,10.89,0,0,0,10.87,10.87"/><path d="M214.91,310.3a10.87,10.87,0,1,0-10.86-10.87,10.89,10.89,0,0,0,10.86,10.87"/><path d="M229.64,240.5a10.87,10.87,0,1,0-10.87-10.86,10.89,10.89,0,0,0,10.87,10.86"/><path d="M299.43,225.78a10.87,10.87,0,1,0-10.87-10.87,10.9,10.9,0,0,0,10.87,10.87"/><path d="M259.83,164.41A10.87,10.87,0,1,0,249,153.54a10.89,10.89,0,0,0,10.87,10.87"/><path d="M229.64,91.52a10.87,10.87,0,1,0-10.87-10.86,10.89,10.89,0,0,0,10.87,10.86"/><path d="M155.15,60.67A10.87,10.87,0,1,0,144.28,49.8a10.89,10.89,0,0,0,10.87,10.87"/><path d="M80.66,91.52A10.87,10.87,0,1,0,69.79,80.66,10.88,10.88,0,0,0,80.66,91.52"/><path d="M299.43,106.25a10.87,10.87,0,1,0-10.87-10.87,10.89,10.89,0,0,0,10.87,10.87"/><path d="M214.91,21.73a10.87,10.87,0,1,0-10.86-10.86,10.89,10.89,0,0,0,10.86,10.86"/><path d="M95.39,21.73A10.87,10.87,0,1,0,84.52,10.87,10.88,10.88,0,0,0,95.39,21.73"/><path d="M168.54,103.43V207.1H147.62V135.76h-24V122.43q10.56-.29,16.13-2.09a16.46,16.46,0,0,0,8.65-6.14,19.58,19.58,0,0,0,3.37-10.77Z"/><polygon class="cls-2" points="793.95 102.48 878.79 102.48 878.79 207.63 798.66 207.63 793.95 102.48"/><polygon class="cls-2" points="646.15 161.14 663.83 102.48 676.45 102.48 688.57 171.52 643.63 171.52 646.15 161.14"/><path class="cls-1" d="M716.85,207.24c.25-1.48,0-99,0-99l9.6,5.33,40.4,93.69Z"/><polygon class="cls-1" points="568.39 102.48 544.65 151.71 568.39 207.24 605 207.24 605 106.44 568.39 102.48"/><polygon class="cls-2" points="384.69 102.48 406.12 155.43 406.12 207.24 461.56 207.24 461.56 96.17 384.69 96.17 384.69 102.48"/><path d="M405.33,125.13a75.24,75.24,0,0,1,5,17.08h.3c1.51-8.61,4.37-14.84,6.93-21.08l10.1-25.25h23.05l-29.83,64v47.37h-21.1V159.89l-29.38-64h23.05Z"/><polygon points="449.03 207.26 449.03 95.88 508.39 95.88 508.39 112.22 470.12 112.22 470.12 140.28 505.38 140.28 505.38 156.62 470.12 156.62 470.12 190.92 508.39 190.92 508.39 207.26 449.03 207.26"/><path d="M512,207.26V95.88h21.1v49.45h.3c3.31-8.76,8.73-18.56,13.26-26.73L559,95.88h23.81L555,143.7l29.23,63.56h-23.8l-19.89-43.95-7.38,12v31.92Z"/><polygon points="575.14 95.88 645.51 95.88 645.51 112.22 620.95 112.22 620.95 207.26 599.86 207.26 599.86 112.22 575.14 112.22 575.14 95.88"/><path d="M659.52,162.71h18.09l-5.73-31.63c-1.06-5.2-1.51-10.25-2.11-15.45-.15-2.52-.46-5-.76-7.42h-.3c-.3,2.37-.6,4.9-.75,7.42-.61,5.2-1.05,10.25-2.11,15.45ZM628,207.26,655,95.88h28.48l25.61,111.38h-22.6L680.92,179H656.2l-5.57,28.22Z"/><path d="M758.22,95.88h21.1V207.26h-22l-16.42-39.65c-5.58-13.21-10.09-26.73-15.07-44.25h-.3c.75,9.2,1.66,20.49,2.26,31.78.6,11.13,1.06,22.27,1.06,31.18v20.94h-21.1V95.88h21.85L746,136.42c5.43,12.93,10,26.14,15.07,44.26h.3c-.75-10.1-1.5-20.94-2.11-31.63s-1-21.39-1-31.34Z"/><polygon points="786.24 207.26 786.24 95.88 845.61 95.88 845.61 112.22 807.34 112.22 807.34 140.28 842.6 140.28 842.6 156.62 807.34 156.62 807.34 190.92 845.61 190.92 845.61 207.26 786.24 207.26"/><polygon points="841.54 95.88 911.91 95.88 911.91 112.22 887.35 112.22 887.35 207.26 866.26 207.26 866.26 112.22 841.54 112.22 841.54 95.88"/></g></g></svg>