<svg xmlns="http://www.w3.org/2000/svg" viewBox="0 0 888.51 326.83"><defs><style>.cls-1,.cls-2{fill:#ffde00;}.cls-1,.cls-4,.cls-5,.cls-7{fill-rule:evenodd;}.cls-3,.cls-4{fill:#939598;}.cls-6,.cls-7{fill:#231f20;}</style></defs><g id="Layer_2" data-name="Layer 2"><g id="Layer_1-2" data-name="Layer 1"><polygon class="cls-1" points="286.24 149.22 286.24 70.65 265.75 70.65 265.75 172.45 265.94 172.45 286.24 172.45 326.43 172.45 326.43 149.22 286.24 149.22"/><polygon class="cls-1" points="403.79 169.89 381.25 149.5 422.06 107.4 406.3 92.31 353.25 147.62 392.76 189.38 464.86 189.38 464.86 169.89 403.79 169.89"/><rect class="cls-2" x="161.39" y="169.89" width="70.26" height="19.48"/><rect class="cls-3" y="187.12" width="163.65" height="19.61"/><rect class="cls-3" x="246.49" y="187.12" width="81.53" height="19.61"/><polygon class="cls-4" points="367.69 186.89 326.1 186.89 326.1 149.34 329.27 146.96 367.69 186.89"/><path class="cls-5" d="M410.6,263A16.58,16.58,0,1,0,394,246.38,16.61,16.61,0,0,0,410.6,263"/><path class="cls-5" d="M443.76,263a16.58,16.58,0,1,0-16.58-16.58A16.62,16.62,0,0,0,443.76,263"/><path class="cls-5" d="M202.28,134a16.59,16.59,0,1,0-16.58-16.59A16.62,16.62,0,0,0,202.28,134"/><path class="cls-5" d="M305.49,100.78A16.58,16.58,0,1,0,288.91,84.2a16.61,16.61,0,0,0,16.58,16.58"/><path class="cls-5" d="M338.65,100.78A16.58,16.58,0,1,0,322.07,84.2a16.61,16.61,0,0,0,16.58,16.58"/><path class="cls-5" d="M69.84,100.78A16.58,16.58,0,1,0,53.26,84.2a16.61,16.61,0,0,0,16.58,16.58"/><path class="cls-5" d="M103,100.78A16.58,16.58,0,1,0,86.42,84.2,16.62,16.62,0,0,0,103,100.78"/><polygon points="394.55 187.12 355.99 149.5 408.56 94.57 395.01 81.03 325.64 149.5 367.05 187.12 325.76 187.12 325.76 206.73 377.32 206.73 396.89 206.73 464.86 206.73 464.86 187.12 394.55 187.12"/><rect x="161.39" y="187.12" width="70.26" height="19.61"/><polygon points="326.43 189.38 246.49 189.38 246.49 70.65 268.5 70.65 268.5 169.89 326.43 169.89 326.43 189.38"/><rect y="169.89" width="163.65" height="19.48"/><rect class="cls-2" y="152.96" width="163.65" height="19.48"/><path class="cls-4" d="M661.6,91.15l28.65-11.87L718.9,67.41A11.41,11.41,0,0,1,718,63a11.25,11.25,0,0,1,.6-3.64L674.25,30.48a11.5,11.5,0,0,1-7.19,3L656.12,85.28a11.53,11.53,0,0,1,5.48,5.87"/><path class="cls-4" d="M622.9,163.41l11.87-28.65,11.87-28.65a11.53,11.53,0,0,1-5.87-5.48L589,111.57a11.44,11.44,0,0,1-3,7.19l28.91,44.38a11.25,11.25,0,0,1,3.64-.6,11.41,11.41,0,0,1,4.38.87"/><path class="cls-4" d="M646.64,241.87l-11.87-28.65L622.9,184.57a11.37,11.37,0,0,1-4.38.87,11.25,11.25,0,0,1-3.64-.6L586,229.22a11.42,11.42,0,0,1,3,7.19l51.82,10.94a11.53,11.53,0,0,1,5.87-5.48"/><path class="cls-4" d="M718.9,280.57,690.25,268.7,661.6,256.83a11.53,11.53,0,0,1-5.48,5.87l10.94,51.82a11.44,11.44,0,0,1,7.19,3l44.38-28.91a11.41,11.41,0,0,1,.27-8"/><path class="cls-4" d="M797.36,256.83,768.71,268.7l-28.65,11.87a11.56,11.56,0,0,1,.27,8l44.38,28.91a11.42,11.42,0,0,1,7.19-3l10.94-51.82a11.53,11.53,0,0,1-5.48-5.87"/><path class="cls-4" d="M836.58,183.3l-12.39,29.92-11.87,28.65a11.53,11.53,0,0,1,5.87,5.48L870,236.41a11.45,11.45,0,0,1,3-7.22l-29.69-46a11.53,11.53,0,0,1-3.59.57,11.33,11.33,0,0,1-3.16-.44"/><path class="cls-4" d="M812.32,106.11l11.87,28.65,11.17,27a11.37,11.37,0,0,1,4.38-.87,11.51,11.51,0,0,1,3.86.67l29.23-42.94a11.42,11.42,0,0,1-2.82-7l-51.82-10.94a11.53,11.53,0,0,1-5.87,5.48"/><path class="cls-4" d="M740.06,67.41l28.65,11.87,28.65,11.87a11.53,11.53,0,0,1,5.48-5.87L791.9,33.46a11.44,11.44,0,0,1-7.19-3L740.33,59.39a11.25,11.25,0,0,1,.6,3.64,11.41,11.41,0,0,1-.87,4.38"/><path class="cls-1" d="M585.61,103,622,66.53l36.42-36.41a11.38,11.38,0,0,0,3,2.15L650.5,84.1A11.43,11.43,0,0,0,639.59,95l-51.83,10.93a11.38,11.38,0,0,0-2.15-3"/><path class="cls-1" d="M577.51,225.49v-103a11.58,11.58,0,0,0,3.65-.59l28.91,44.38a11.44,11.44,0,0,0,0,15.42l-28.91,44.38a11.58,11.58,0,0,0-3.65-.59"/><path class="cls-1" d="M658.44,317.86,622,281.45,585.61,245a11.38,11.38,0,0,0,2.15-3L639.59,253a11.44,11.44,0,0,0,10.91,10.91l10.93,51.83a11.38,11.38,0,0,0-3,2.15"/><path class="cls-1" d="M781,326H678a11.58,11.58,0,0,0-.59-3.65l44.37-28.91a11.45,11.45,0,0,0,15.43,0l44.38,28.91A11.58,11.58,0,0,0,781,326Z"/><path class="cls-1" d="M873.35,245l-36.41,36.42-36.42,36.41a11.38,11.38,0,0,0-3-2.15l10.93-51.83A11.44,11.44,0,0,0,819.37,253L871.2,242a11.38,11.38,0,0,0,2.15,3"/><path class="cls-1" d="M881.45,122.49v103a11.27,11.27,0,0,0-3.6.58l-29.69-46a11.46,11.46,0,0,0,.19-15.29l29.24-42.94a11.43,11.43,0,0,0,3.86.67"/><path class="cls-1" d="M800.52,30.12l36.42,36.41L873.35,103a11.38,11.38,0,0,0-2.15,3L819.37,95A11.44,11.44,0,0,0,808.46,84.1L797.53,32.27a11.38,11.38,0,0,0,3-2.15"/><path class="cls-1" d="M678,22H781a11.58,11.58,0,0,0,.59,3.65L737.19,54.58a11.45,11.45,0,0,0-15.43,0L677.39,25.67A11.58,11.58,0,0,0,678,22"/><path class="cls-6" d="M790.07,320.27H660.13l-91.89-91.88V98.44L660.13,6.55H790.07L882,98.44v130Zm-125.89-9.79H786l86.15-86.14V102.49L786,16.34H664.18L578,102.49V224.34Z"/><path class="cls-6" d="M725.1,279.67l-82.21-34.06-34-82.2,34-82.2,82.21-34,82.2,34.05,34.05,82.2-34.05,82.2Zm-74.71-41.55,74.71,30.95,74.71-30.95,31-74.71-31-74.71L725.1,57.75l-74.71,31-30.95,74.71Z"/><path class="cls-6" d="M791.35,323.37,725.1,280.21l-66.26,43.16L642.51,246l-77.37-16.33,43.16-66.26L565.14,97.16l77.37-16.34L658.84,3.45,725.1,46.62,791.36,3.45l16.33,77.37,77.53,16.37-44,64.61L885,229.68,807.69,246ZM581.13,223.05l69.64,14.69,14.69,69.64,59.64-38.85,59.63,38.85,14.69-69.64L869.1,223l-39.62-61.39,39.43-57.9L799.42,89.09,784.74,19.44,725.1,58.3,665.46,19.44,650.77,89.09l-69.64,14.69L620,163.41Z"/><path class="cls-7" d="M573.13,111.91a11.45,11.45,0,1,0-11.44-11.44,11.47,11.47,0,0,0,11.44,11.44"/><path class="cls-7" d="M614.14,174.86a11.45,11.45,0,1,0-11.44-11.45,11.47,11.47,0,0,0,11.44,11.45"/><path class="cls-7" d="M573.13,237.81a11.45,11.45,0,1,0-11.44-11.45,11.47,11.47,0,0,0,11.44,11.45"/><path class="cls-7" d="M646.64,253.32a11.45,11.45,0,1,0-11.45-11.45,11.48,11.48,0,0,0,11.45,11.45"/><path class="cls-7" d="M662.15,326.83a11.45,11.45,0,1,0-11.44-11.45,11.47,11.47,0,0,0,11.44,11.45"/><path class="cls-7" d="M725.1,285.82a11.45,11.45,0,1,0-11.45-11.45,11.47,11.47,0,0,0,11.45,11.45"/><path class="cls-7" d="M788,326.82a11.45,11.45,0,1,0-11.44-11.44A11.47,11.47,0,0,0,788,326.82"/><path class="cls-7" d="M803.56,253.32a11.45,11.45,0,1,0-11.45-11.45,11.47,11.47,0,0,0,11.45,11.45"/><path class="cls-7" d="M877.06,237.81a11.45,11.45,0,1,0-11.44-11.45,11.47,11.47,0,0,0,11.44,11.45"/><path class="cls-7" d="M835.35,173.17a11.45,11.45,0,1,0-11.44-11.45,11.47,11.47,0,0,0,11.44,11.45"/><path class="cls-7" d="M803.56,96.4A11.45,11.45,0,1,0,792.11,85,11.47,11.47,0,0,0,803.56,96.4"/><path class="cls-7" d="M725.1,63.9a11.45,11.45,0,1,0-11.45-11.44A11.46,11.46,0,0,0,725.1,63.9"/><path class="cls-7" d="M646.64,96.4A11.45,11.45,0,1,0,635.19,85,11.47,11.47,0,0,0,646.64,96.4"/><path class="cls-7" d="M877.06,111.91a11.45,11.45,0,1,0-11.44-11.44,11.47,11.47,0,0,0,11.44,11.44"/><path class="cls-7" d="M788,22.89A11.45,11.45,0,1,0,776.6,11.45,11.47,11.47,0,0,0,788,22.89"/><path class="cls-7" d="M662.15,22.89a11.45,11.45,0,1,0-11.44-11.44,11.47,11.47,0,0,0,11.44,11.44"/><path class="cls-6" d="M739.2,108.94V218.13h-22V143H691.92V129q11.13-.32,17-2.21a17.44,17.44,0,0,0,9.12-6.46,20.82,20.82,0,0,0,3.55-11.35Z"/></g></g></svg>