<svg xmlns="http://www.w3.org/2000/svg" viewBox="0 0 373.87 622.98"><defs><style>.cls-1,.cls-2{fill:#ffde00;}.cls-1,.cls-4,.cls-5,.cls-8{fill-rule:evenodd;}.cls-3,.cls-4{fill:#949b9c;}.cls-5,.cls-6{fill:#20221d;}.cls-7,.cls-8{fill:#231f20;}</style></defs><g id="Layer_2" data-name="Layer 2"><g id="Layer_1-2" data-name="Layer 1"><polygon class="cls-1" points="230.21 531.5 230.21 468.31 213.73 468.31 213.73 550.18 213.89 550.18 230.21 550.18 262.53 550.18 262.53 531.5 230.21 531.5"/><polygon class="cls-1" points="324.75 548.13 306.62 531.73 339.45 497.87 326.77 485.74 284.11 530.21 315.88 563.8 373.87 563.8 373.87 548.13 324.75 548.13"/><rect class="cls-2" x="129.8" y="548.13" width="56.51" height="15.67"/><rect class="cls-3" y="561.98" width="131.61" height="15.77"/><rect class="cls-3" x="198.24" y="561.98" width="65.57" height="15.77"/><polygon class="cls-4" points="295.72 561.8 262.27 561.8 262.27 531.6 264.82 529.69 295.72 561.8"/><path class="cls-5" d="M330.23,623a13.34,13.34,0,1,0-13.34-13.33A13.36,13.36,0,0,0,330.23,623"/><path class="cls-5" d="M356.9,623a13.34,13.34,0,1,0-13.34-13.33A13.36,13.36,0,0,0,356.9,623"/><path class="cls-5" d="M162.69,519.22a13.34,13.34,0,1,0-13.34-13.34,13.36,13.36,0,0,0,13.34,13.34"/><path class="cls-5" d="M245.69,492.55a13.34,13.34,0,1,0-13.34-13.34,13.36,13.36,0,0,0,13.34,13.34"/><path class="cls-5" d="M272.36,492.55A13.34,13.34,0,1,0,259,479.21a13.36,13.36,0,0,0,13.33,13.34"/><path class="cls-5" d="M56.17,492.55a13.34,13.34,0,1,0-13.34-13.34,13.36,13.36,0,0,0,13.34,13.34"/><path class="cls-5" d="M82.84,492.55a13.34,13.34,0,1,0-13.33-13.34,13.36,13.36,0,0,0,13.33,13.34"/><rect class="cls-6" x="129.8" y="561.98" width="56.51" height="15.77"/><polygon class="cls-6" points="262.53 563.8 198.24 563.8 198.24 468.31 215.94 468.31 215.94 548.13 262.53 548.13 262.53 563.8"/><rect class="cls-6" y="548.13" width="131.61" height="15.67"/><rect class="cls-2" y="534.51" width="131.61" height="15.67"/><path class="cls-1" d="M357.71,133.79V246.3a12.38,12.38,0,0,0-3.92.63l-32.44-50.27a12.51,12.51,0,0,0,.21-16.7l31.93-46.9a12.56,12.56,0,0,0,4.22.73"/><path class="cls-4" d="M117.57,99.56l31.3-13,31.3-13a12.59,12.59,0,0,1-.31-8.76L131.39,33.29a12.4,12.4,0,0,1-7.85,3.25l-12,56.61a12.51,12.51,0,0,1,6,6.41"/><path class="cls-4" d="M75.31,178.49l13-31.29,13-31.3a12.55,12.55,0,0,1-6.41-6L38.22,121.86A12.49,12.49,0,0,1,35,129.72l31.58,48.47a12.53,12.53,0,0,1,8.77.3"/><path class="cls-4" d="M101.24,264.19l-13-31.3-13-31.29a12.5,12.5,0,0,1-8.76.3L35,250.37a12.49,12.49,0,0,1,3.26,7.86l56.61,11.94a12.55,12.55,0,0,1,6.41-6"/><path class="cls-4" d="M180.17,306.46l-31.3-13-31.3-13a12.51,12.51,0,0,1-6,6.41l12,56.61a12.4,12.4,0,0,1,7.85,3.25l48.47-31.58a12.59,12.59,0,0,1,.31-8.76"/><path class="cls-4" d="M265.86,280.53l-31.29,13-31.3,13a12.46,12.46,0,0,1,.95,4.78,12.76,12.76,0,0,1-.64,4l48.47,31.58a12.4,12.4,0,0,1,7.85-3.25l12-56.61a12.57,12.57,0,0,1-6-6.41"/><path class="cls-4" d="M308.7,200.22l-13.53,32.67-13,31.3a12.55,12.55,0,0,1,6.41,6l56.61-11.94a12.45,12.45,0,0,1,3.29-7.89l-32.44-50.27a12.38,12.38,0,0,1-3.92.63,12.66,12.66,0,0,1-3.45-.48"/><path class="cls-4" d="M282.2,115.9l13,31.3,12.2,29.45a12.53,12.53,0,0,1,9-.22l31.93-46.91a12.41,12.41,0,0,1-3.08-7.66l-56.61-11.94a12.55,12.55,0,0,1-6.41,6"/><path class="cls-4" d="M203.27,73.63l31.3,13,31.29,13a12.57,12.57,0,0,1,6-6.41l-12-56.61a12.4,12.4,0,0,1-7.85-3.25L203.58,64.87a12.76,12.76,0,0,1,.64,4,12.46,12.46,0,0,1-.95,4.78"/><path class="cls-1" d="M34.57,112.45,74.35,72.67l39.77-39.78a12.68,12.68,0,0,0,3.27,2.36L105.45,91.86a12.5,12.5,0,0,0-11.92,11.91l-56.61,12a12.32,12.32,0,0,0-2.35-3.27"/><path class="cls-1" d="M25.73,246.3V133.79a12.48,12.48,0,0,0,4-.65l31.58,48.48a12.49,12.49,0,0,0,0,16.85L29.71,246.94a12.76,12.76,0,0,0-4-.64"/><path class="cls-1" d="M114.12,347.19,74.35,307.42,34.57,267.64a12.32,12.32,0,0,0,2.35-3.27l56.61,11.95a12.5,12.5,0,0,0,11.92,11.91l11.94,56.61a13.14,13.14,0,0,0-3.27,2.35"/><path class="cls-1" d="M248,356H135.47a12.44,12.44,0,0,0-.65-4l48.47-31.58a12.53,12.53,0,0,0,16.86,0l48.47,31.58a12.42,12.42,0,0,0-.65,4Z"/><path class="cls-1" d="M348.87,267.64l-39.78,39.78-39.78,39.77a12.66,12.66,0,0,0-3.26-2.35L278,288.23a12.5,12.5,0,0,0,11.92-11.91l56.61-11.95a12.32,12.32,0,0,0,2.35,3.27"/><path class="cls-1" d="M269.31,32.89l39.78,39.78,39.78,39.78a12.32,12.32,0,0,0-2.35,3.27l-56.61-12A12.5,12.5,0,0,0,278,91.86L266.05,35.25a12.7,12.7,0,0,0,3.26-2.36"/><path class="cls-1" d="M135.47,24.05H248a12.44,12.44,0,0,0,.65,4L200.15,59.61a12.53,12.53,0,0,0-16.86,0L134.82,28a12.42,12.42,0,0,0,.65-4Z"/><polygon class="cls-6" points="317.32 561.98 286.31 531.73 328.59 487.55 317.69 476.66 261.9 531.73 295.2 561.98 262 561.98 262 577.75 303.46 577.75 319.2 577.75 373.87 577.75 373.87 561.98 317.32 561.98"/><path class="cls-7" d="M257.9,349.82H116L15.6,249.46V107.52L116,7.16H257.9L358.27,107.52V249.46ZM120.39,339.14H253.47L347.58,245V112L253.47,17.84H120.39L26.29,112V245Z"/><path class="cls-7" d="M186.94,305.48l-89.8-37.2L60,178.49,97.14,88.7l89.8-37.19L276.72,88.7l37.2,89.79-37.2,89.79ZM105.33,260.1l81.61,33.8,81.6-33.8,33.81-81.61L268.54,96.88l-81.6-33.8-81.61,33.8-33.8,81.61Z"/><path class="cls-7" d="M259.3,353.21l-72.36-47.14-72.38,47.14L96.72,268.7,12.21,250.87l47.15-72.38L12.21,106.12,96.72,88.28,114.56,3.77l72.38,47.15L259.31,3.77l17.83,84.51,84.69,17.87-48.05,70.58,47.84,74.15L277.14,268.7ZM29.68,243.63l76.07,16.05,16,76.07,65.15-42.44,65.13,42.44,16.05-76.07,76.1-16.06L301,176.57,344,113.32l-75.9-16L252.07,21.24,186.94,63.68,121.79,21.24l-16,76.07-76.07,16,42.44,65.14Z"/><path class="cls-8" d="M20.94,122.24a12.51,12.51,0,1,0-12.5-12.5,12.53,12.53,0,0,0,12.5,12.5"/><path class="cls-8" d="M65.74,191a12.5,12.5,0,1,0-12.5-12.5A12.52,12.52,0,0,0,65.74,191"/><path class="cls-8" d="M20.94,259.75a12.5,12.5,0,1,0-12.5-12.5,12.53,12.53,0,0,0,12.5,12.5"/><path class="cls-8" d="M101.24,276.69a12.5,12.5,0,1,0-12.51-12.5,12.52,12.52,0,0,0,12.51,12.5"/><path class="cls-8" d="M118.18,357a12.5,12.5,0,1,0-12.5-12.5,12.52,12.52,0,0,0,12.5,12.5"/><path class="cls-8" d="M186.93,312.19a12.5,12.5,0,1,0-12.5-12.5,12.53,12.53,0,0,0,12.5,12.5"/><path class="cls-8" d="M255.69,357a12.5,12.5,0,1,0-12.5-12.5,12.52,12.52,0,0,0,12.5,12.5"/><path class="cls-8" d="M272.63,276.69a12.5,12.5,0,1,0-12.5-12.5,12.52,12.52,0,0,0,12.5,12.5"/><path class="cls-8" d="M352.92,259.75a12.5,12.5,0,1,0-12.5-12.5,12.53,12.53,0,0,0,12.5,12.5"/><path class="cls-8" d="M307.37,189.15a12.51,12.51,0,1,0-12.51-12.5,12.53,12.53,0,0,0,12.51,12.5"/><path class="cls-8" d="M272.63,105.3a12.51,12.51,0,1,0-12.5-12.51,12.53,12.53,0,0,0,12.5,12.51"/><path class="cls-8" d="M186.93,69.8a12.51,12.51,0,1,0-12.5-12.5,12.53,12.53,0,0,0,12.5,12.5"/><path class="cls-8" d="M101.24,105.3A12.51,12.51,0,1,0,88.73,92.79a12.53,12.53,0,0,0,12.51,12.51"/><path class="cls-8" d="M352.92,122.24a12.5,12.5,0,1,0-12.5-12.5,12.53,12.53,0,0,0,12.5,12.5"/><path class="cls-8" d="M255.69,25a12.5,12.5,0,1,0-12.5-12.5A12.52,12.52,0,0,0,255.69,25"/><path class="cls-8" d="M118.18,25a12.5,12.5,0,1,0-12.5-12.5A12.52,12.52,0,0,0,118.18,25"/><path class="cls-7" d="M202.34,119V238.26H178.27V156.19H150.69V140.85q12.17-.33,18.57-2.4a19,19,0,0,0,10-7.06,22.75,22.75,0,0,0,3.88-12.4Z"/></g></g></svg>