<svg xmlns="http://www.w3.org/2000/svg" viewBox="0 0 369.28 369.28"><defs><style>.cls-1{fill:#939598;}.cls-1,.cls-2,.cls-4{fill-rule:evenodd;}.cls-2{fill:#ffde00;}.cls-3,.cls-4{fill:#231f20;}</style></defs><g id="Layer_2" data-name="Layer 2"><g id="Layer_1-2" data-name="Layer 1"><path class="cls-1" d="M112.89,103l32.38-13.41,32.37-13.41a12.93,12.93,0,0,1-1-5,12.8,12.8,0,0,1,.67-4.12L127.18,34.44a12.87,12.87,0,0,1-8.12,3.36L106.7,96.36a13,13,0,0,1,6.19,6.63"/><path class="cls-1" d="M69.17,184.64l13.41-32.38L96,119.89a13,13,0,0,1-6.63-6.19L30.8,126.06a12.87,12.87,0,0,1-3.36,8.12L60.1,184.33a12.8,12.8,0,0,1,4.12-.67,12.93,12.93,0,0,1,5,1"/><path class="cls-1" d="M96,273.29,82.58,240.91,69.17,208.54a12.93,12.93,0,0,1-5,1,12.69,12.69,0,0,1-4.11-.67L27.44,259a12.87,12.87,0,0,1,3.36,8.12l58.56,12.36A13,13,0,0,1,96,273.29"/><path class="cls-1" d="M177.64,317,145.27,303.6l-32.38-13.41a13,13,0,0,1-6.19,6.63l12.36,58.56a12.87,12.87,0,0,1,8.12,3.36l50.15-32.66a12.8,12.8,0,0,1-.67-4.12,12.93,12.93,0,0,1,1-4.95"/><path class="cls-1" d="M266.29,290.19,233.92,303.6,201.54,317a13,13,0,0,1,1,4.95,12.8,12.8,0,0,1-.67,4.12L252,358.74a12.87,12.87,0,0,1,8.12-3.36l12.36-58.56a13,13,0,0,1-6.19-6.63"/><path class="cls-1" d="M310.6,207.11l-14,33.81-13.41,32.37a13,13,0,0,1,6.63,6.19l58.56-12.36a12.91,12.91,0,0,1,3.4-8.16l-33.55-52a13,13,0,0,1-4.06.65,12.78,12.78,0,0,1-3.57-.5"/><path class="cls-1" d="M283.19,119.89l13.41,32.37,12.62,30.47a13,13,0,0,1,9.31-.23l33-48.52a12.88,12.88,0,0,1-3.19-7.92L289.82,113.7a13,13,0,0,1-6.63,6.19"/><path class="cls-1" d="M201.54,76.17l32.38,13.41L266.29,103a13,13,0,0,1,6.19-6.63L260.12,37.8A12.89,12.89,0,0,1,252,34.44L201.86,67.1a13.07,13.07,0,0,1,.66,4.12,12.93,12.93,0,0,1-1,5"/><path class="cls-2" d="M27,116.32,68.18,75.18,109.32,34a13.09,13.09,0,0,0,3.38,2.43L100.35,95A12.94,12.94,0,0,0,88,107.35L29.46,119.7A13.09,13.09,0,0,0,27,116.32"/><path class="cls-2" d="M17.88,254.78V138.4a13,13,0,0,0,4.12-.67l32.67,50.14a12.94,12.94,0,0,0,0,17.44L22,255.45a13,13,0,0,0-4.12-.67"/><path class="cls-2" d="M109.32,359.15,68.18,318,27,276.86a12.92,12.92,0,0,0,2.43-3.38L88,285.83a12.93,12.93,0,0,0,12.33,12.33l12.35,58.56a13.09,13.09,0,0,0-3.38,2.43"/><path class="cls-2" d="M247.78,368.3H131.4a13.08,13.08,0,0,0-.67-4.12l50.14-32.67a12.94,12.94,0,0,0,17.44,0l50.14,32.67a13,13,0,0,0-.67,4.12Z"/><path class="cls-2" d="M352.15,276.86,311,318l-41.15,41.15a12.92,12.92,0,0,0-3.38-2.43l12.35-58.56a12.93,12.93,0,0,0,12.33-12.33l58.56-12.35a12.92,12.92,0,0,0,2.43,3.38"/><path class="cls-2" d="M361.3,138.4V254.78a13,13,0,0,0-4.06.65l-33.55-52a12.95,12.95,0,0,0,.21-17.28l33-48.51a13.09,13.09,0,0,0,4.36.75"/><path class="cls-2" d="M269.86,34,311,75.18l41.15,41.14a13.09,13.09,0,0,0-2.43,3.38l-58.56-12.35A12.94,12.94,0,0,0,278.83,95L266.48,36.46A12.92,12.92,0,0,0,269.86,34"/><path class="cls-2" d="M131.4,24.88H247.78a13,13,0,0,0,.67,4.12L198.31,61.67a12.93,12.93,0,0,0-17.43,0L130.73,29a12.75,12.75,0,0,0,.67-4.12"/><path class="cls-3" d="M258.05,361.87H111.23L7.41,258.05V111.23L111.23,7.4H258.05L361.87,111.23V258.05ZM115.81,350.82H253.47l97.35-97.34V115.81L253.47,18.46H115.81L18.46,115.81V253.48Z"/><path class="cls-3" d="M184.64,316,91.76,277.52,53.29,184.64,91.76,91.76l92.88-38.48,92.88,38.48L316,184.64l-38.48,92.88Zm-84.42-46.95,84.42,35,84.42-35,35-84.41-35-84.42-84.42-35-84.42,35-35,84.42Z"/><path class="cls-3" d="M259.5,365.38l-74.86-48.77-74.86,48.77L91.32,278,3.9,259.51l48.77-74.87L3.9,109.78,91.32,91.32,109.78,3.9l74.86,48.77L259.51,3.9,278,91.32l87.6,18.49-49.71,73,49.5,76.7L278,278ZM22,252l78.69,16.6,16.6,78.69,67.38-43.9L252,347.31l16.6-78.69L347.34,252l-44.75-69.36,44.54-65.43-78.51-16.56L252,22l-67.39,43.9L117.26,22l-16.6,78.69L22,117.26l43.9,67.38Z"/><path class="cls-4" d="M12.93,126.45A12.94,12.94,0,1,0,0,113.52a13,13,0,0,0,12.93,12.93"/><path class="cls-4" d="M59.27,197.57a12.93,12.93,0,1,0-12.93-12.93,13,13,0,0,0,12.93,12.93"/><path class="cls-4" d="M12.93,268.7A12.94,12.94,0,1,0,0,255.76,13,13,0,0,0,12.93,268.7"/><path class="cls-4" d="M96,286.22a12.93,12.93,0,1,0-12.93-12.93A13,13,0,0,0,96,286.22"/><path class="cls-4" d="M113.52,369.28a12.93,12.93,0,1,0-12.94-12.93,13,13,0,0,0,12.94,12.93"/><path class="cls-4" d="M184.64,322.94A12.93,12.93,0,1,0,171.71,310a13,13,0,0,0,12.93,12.93"/><path class="cls-4" d="M255.76,369.28a12.94,12.94,0,1,0-12.93-12.93,13,13,0,0,0,12.93,12.93"/><path class="cls-4" d="M273.29,286.22a12.93,12.93,0,1,0-12.93-12.93,13,13,0,0,0,12.93,12.93"/><path class="cls-4" d="M356.35,268.7a12.94,12.94,0,1,0-12.93-12.94,13,13,0,0,0,12.93,12.94"/><path class="cls-4" d="M309.22,195.66a12.93,12.93,0,1,0-12.93-12.93,13,13,0,0,0,12.93,12.93"/><path class="cls-4" d="M273.29,108.92A12.93,12.93,0,1,0,260.36,96a13,13,0,0,0,12.93,12.93"/><path class="cls-4" d="M184.64,72.2a12.93,12.93,0,1,0-12.93-12.93A13,13,0,0,0,184.64,72.2"/><path class="cls-4" d="M96,108.92A12.93,12.93,0,1,0,83.06,96,13,13,0,0,0,96,108.92"/><path class="cls-4" d="M356.35,126.45a12.94,12.94,0,1,0-12.94-12.93,13,13,0,0,0,12.94,12.93"/><path class="cls-4" d="M255.76,25.86a12.93,12.93,0,1,0-12.93-12.93,13,13,0,0,0,12.93,12.93"/><path class="cls-4" d="M113.52,25.86a12.93,12.93,0,1,0-12.93-12.93,13,13,0,0,0,12.93,12.93"/><path class="cls-3" d="M200.58,123.09V246.47h-24.9v-84.9H147.15V145.71q12.58-.35,19.2-2.49a19.7,19.7,0,0,0,10.3-7.31,23.36,23.36,0,0,0,4-12.82Z"/></g></g></svg>