<svg xmlns="http://www.w3.org/2000/svg" viewBox="0 0 825.55 303.58"><defs><style>.cls-1{fill:none;stroke:#323232;stroke-miterlimit:10;stroke-width:3px;}.cls-2,.cls-3{fill:#323232;}.cls-2{fill-rule:evenodd;}</style></defs><g id="Layer_2" data-name="Layer 2"><g id="Layer_1-2" data-name="Layer 1"><polygon class="cls-1" points="265.49 139.86 265.49 66.89 246.46 66.89 246.46 161.44 246.64 161.44 265.49 161.44 302.82 161.44 302.82 139.86 265.49 139.86"/><polygon class="cls-1" points="374.68 159.07 353.74 140.12 391.66 101.02 377.01 87.01 327.74 138.38 364.43 177.16 430.68 177.16 430.68 159.07 374.68 159.07"/><rect class="cls-1" x="151.65" y="158.75" width="61.97" height="17.46"/><rect class="cls-1" x="1.5" y="172.29" width="150.15" height="17.99"/><rect class="cls-1" x="230.83" y="173.71" width="77.18" height="16.58"/><polygon class="cls-1" points="341.78 173.6 303.15 173.6 302.82 139.86 306.82 137.26 341.78 173.6"/><path class="cls-2" d="M381.64,244.26a15.41,15.41,0,1,0-15.41-15.4,15.43,15.43,0,0,0,15.41,15.4"/><path class="cls-2" d="M412.44,244.26a15.41,15.41,0,1,0-15.4-15.4,15.43,15.43,0,0,0,15.4,15.4"/><path class="cls-2" d="M188.14,124.42a15.41,15.41,0,1,0-15.4-15.4,15.43,15.43,0,0,0,15.4,15.4"/><path class="cls-2" d="M284,93.61a15.4,15.4,0,1,0-15.4-15.4A15.43,15.43,0,0,0,284,93.61"/><path class="cls-2" d="M314.81,93.61a15.4,15.4,0,1,0-15.41-15.4,15.43,15.43,0,0,0,15.41,15.4"/><path class="cls-2" d="M65.11,93.61a15.4,15.4,0,1,0-15.4-15.4,15.43,15.43,0,0,0,15.4,15.4"/><path class="cls-2" d="M95.92,93.61a15.4,15.4,0,1,0-15.4-15.4,15.43,15.43,0,0,0,15.4,15.4"/><polygon class="cls-3" points="366.72 173.81 330.91 138.87 379.74 87.85 367.16 75.27 302.71 138.87 341.18 173.81 302.83 173.81 302.83 192.02 350.72 192.02 368.9 192.02 432.04 192.02 432.04 173.81 366.72 173.81"/><rect class="cls-3" x="150.15" y="173.81" width="65.26" height="18.21"/><polygon class="cls-3" points="303.45 175.91 229.2 175.91 229.2 65.63 249.64 65.63 249.64 157.81 303.45 157.81 303.45 175.91"/><rect class="cls-3" x="0.24" y="157.81" width="152.01" height="18.1"/><rect class="cls-1" x="1.5" y="142.84" width="149.52" height="17.85"/><path class="cls-3" d="M734.11,297.49H613.41l-85.35-85.35V91.44L613.41,6.09h120.7l85.36,85.35v120.7ZM617.18,288.4H730.35l80-80V95.2l-80-80H617.18l-80,80V208.38Z"/><path class="cls-3" d="M673.77,259.78l-76.36-31.64-31.63-76.35,31.63-76.36L673.77,43.8l76.35,31.63,31.63,76.36-31.63,76.35Zm-69.4-38.59,69.4,28.74,69.39-28.74,28.75-69.4-28.75-69.4L673.77,53.65l-69.4,28.74-28.75,69.4Z"/><path class="cls-3" d="M735.31,300.37l-61.54-40.09-61.55,40.09L597.05,228.5l-71.87-15.16,40.1-61.55-40.1-61.55,71.87-15.17L612.22,3.2l61.55,40.1L735.31,3.2l15.17,71.87,72,15.2-40.86,60,40.69,63.06L750.48,228.5ZM540,207.19l64.69,13.64,13.65,64.69,55.4-36.09,55.39,36.09,13.64-64.69,64.72-13.65-36.79-57,36.62-53.78L742.8,82.75,729.16,18.06,673.77,54.15l-55.4-36.09L604.72,82.75,540,96.4l36.1,55.39Z"/><path class="cls-2" d="M532.61,104A10.63,10.63,0,1,0,522,93.32,10.65,10.65,0,0,0,532.61,104"/><path class="cls-2" d="M570.7,162.42a10.63,10.63,0,1,0-10.63-10.63,10.65,10.65,0,0,0,10.63,10.63"/><path class="cls-2" d="M532.61,220.89A10.63,10.63,0,1,0,522,210.26a10.66,10.66,0,0,0,10.63,10.63"/><path class="cls-2" d="M600.89,235.3a10.63,10.63,0,1,0-10.64-10.63,10.66,10.66,0,0,0,10.64,10.63"/><path class="cls-2" d="M615.29,303.58A10.63,10.63,0,1,0,604.66,293a10.66,10.66,0,0,0,10.63,10.63"/><path class="cls-2" d="M673.76,265.49a10.64,10.64,0,1,0-10.63-10.64,10.66,10.66,0,0,0,10.63,10.64"/><path class="cls-2" d="M732.23,303.58A10.64,10.64,0,1,0,721.6,293a10.66,10.66,0,0,0,10.63,10.63"/><path class="cls-2" d="M746.64,235.3A10.63,10.63,0,1,0,736,224.67a10.65,10.65,0,0,0,10.63,10.63"/><path class="cls-2" d="M814.92,220.89a10.63,10.63,0,1,0-10.63-10.63,10.65,10.65,0,0,0,10.63,10.63"/><path class="cls-2" d="M776.18,160.85a10.63,10.63,0,1,0-10.63-10.63,10.66,10.66,0,0,0,10.63,10.63"/><path class="cls-2" d="M746.64,89.54A10.63,10.63,0,1,0,736,78.91a10.64,10.64,0,0,0,10.63,10.63"/><path class="cls-2" d="M673.76,59.36a10.64,10.64,0,1,0-10.63-10.64,10.66,10.66,0,0,0,10.63,10.64"/><path class="cls-2" d="M600.89,89.54a10.63,10.63,0,1,0-10.64-10.63,10.65,10.65,0,0,0,10.64,10.63"/><path class="cls-2" d="M814.92,104a10.63,10.63,0,1,0-10.63-10.63A10.64,10.64,0,0,0,814.92,104"/><path class="cls-2" d="M732.23,21.26A10.63,10.63,0,1,0,721.6,10.63a10.65,10.65,0,0,0,10.63,10.63"/><path class="cls-2" d="M615.29,21.26a10.63,10.63,0,1,0-10.63-10.63,10.65,10.65,0,0,0,10.63,10.63"/><path class="cls-3" d="M686.87,101.19V202.62H666.4v-69.8H643v-13c6.89-.19,12.15-.86,15.78-2a16.26,16.26,0,0,0,8.47-6,19.24,19.24,0,0,0,3.29-10.54Z"/></g></g></svg>